{"title":"StarTalk.S01E06.Jimmy.Carter.1080p.WEB-DL.DD5.1.H.264-orangebird","uid":11965685,"size":1783616584,"categoryP":"video","categoryS":"hd___tv_shows","magnet":"?xt=urn:btih:6ce16b6ca4bd5a32b03725753b78ea32f8a5a0f9&amp;dn=StarTalk.S01E06.Jimmy.Carter.1080p.WEB-DL.DD5.1.H.264-orangebird&amp;tr=udp%3A%2F%2Ftracker.openbittorrent.com%3A80&amp;tr=udp%3A%2F%2Fopen.demonii.com%3A1337&amp;tr=udp%3A%2F%2Ftracker.coppersurfer.tk%3A6969&amp;tr=udp%3A%2F%2Fexodus.desync.com%3A6969","seeders":1,"leechers":0,"uploader":"orangebirds","files":1,"time":1432658181,"description":"StarTalk.S01E06.Jimmy.Carter.1080p.WEB-DL.DD5.1.H.264-orangebirds\n\nSource : iTunes\n\nVideo untouched from the source\nAudio in AC3 5.1\nCC available\n\nPlease help me seed!\n\nGeneral\nUnique ID                                : 251295670784756162175132252391044536809 (0xBD0DC925558A9540AD4C276F1783D9E9)\nComplete name                            : StarTalk.S01E06.Jimmy.Carter.1080p.WEB-DL.DD5.1.H.264-orangebirds.mkv\nFormat                                   : Matroska\nFormat version                           : Version 4 / Version 2\nFile size                                : 1.66 GiB\nDuration                                 : 42mn 28s\nOverall bit rate                         : 5 600 Kbps\nEncoded date                             : UTC 2015-05-26 14:06:20\nWriting application                      : mkvmerge v7.9.0 ('Birds') 64bit\nWriting library                          : libebml v1.3.1 + libmatroska v1.4.2\nDURATION                                 : 00:41:05.495000000\nNUMBER_OF_FRAMES                         : 1273\nNUMBER_OF_BYTES                          : 59849\n_STATISTICS_WRITING_APP                  : mkvmerge v7.9.0 ('Birds') 64bit\n_STATISTICS_WRITING_DATE_UTC             : 2015-05-26 14:06:20\n_STATISTICS_TAGS                         : BPS DURATION NUMBER_OF_FRAMES NUMBER_OF_BYTES\n\nVideo\nID                                       : 1\nFormat                                   : AVC\nFormat/Info                              : Advanced Video Codec\nFormat profile                           : &lt;a class=&quot;__cf_email__&quot; href=&quot;/cdn-cgi/l/email-protection&quot; data-cfemail=&quot;84ccede3ecc4c8b0aab4&quot;&gt;[email&amp;#160;protected]&lt;/a&gt;&lt;script data-cfhash='f9e31' type=&quot;text/javascript&quot;&gt;\n/* &lt;![CDATA[ */!function(){try{var t=&quot;currentScript&quot;in document?document.currentScript:function(){for(var t=document.getElementsByTagName(&quot;script&quot;),e=t.length;e--;)if(t[e].getAttribute(&quot;data-cfhash&quot;))return t[e]}();if(t&amp;&amp;t.previousSibling){var e,r,n,i,c=t.previousSibling,a=c.getAttribute(&quot;data-cfemail&quot;);if(a){for(e=&quot;&quot;,r=parseInt(a.substr(0,2),16),n=2;a.length-n;n+=2)i=parseInt(a.substr(n,2),16)^r,e+=String.fromCharCode(i);e=document.createTextNode(e),c.parentNode.replaceChild(e,c)}t.parentNode.removeChild(t);}}catch(u){}}()/* ]]&gt; */&lt;/script&gt;\nFormat settings, CABAC                   : Yes\nFormat settings, ReFrames                : 5 frames\nCodec ID                                 : V_MPEG4/ISO/AVC\nDuration                                 : 42mn 28s\nBit rate                                 : 5 104 Kbps\nWidth                                    : 1 440 pixels\nHeight                                   : 1 080 pixels\nDisplay aspect ratio                     : 16:9\nFrame rate mode                          : Constant\nFrame rate                               : 29.970 fps\nColor space                              : YUV\nChroma subsampling                       : 4:2:0\nBit depth                                : 8 bits\nScan type                                : Progressive\nBits/(Pixel*Frame)                       : 0.110\nStream size                              : 1.51 GiB (91%)\nLanguage                                 : English\nDefault                                  : Yes\nForced                                   : No\nColor primaries                          : BT.709\nTransfer characteristics                 : BT.709\nMatrix coefficients                      : BT.709\n\nAudio\nID                                       : 2\nFormat                                   : AC-3\nFormat/Info                              : Audio Coding 3\nMode extension                           : CM (complete main)\nFormat settings, Endianness              : Big\nCodec ID                                 : A_AC3\nDuration                                 : 42mn 28s\nBit rate mode                            : Constant\nBit rate                                 : 384 Kbps\nChannel(s)                               : 6 channels\nChannel positions                        : Front: L C R, Side: L R, LFE\nSampling rate                            : 48.0 KHz\nBit depth                                : 16 bits\nCompression mode                         : Lossy\nStream size                              : 117 MiB (7%)\nTitle                                    : AC3 5.1\nLanguage                                 : English\nDefault                                  : Yes\nForced                                   : No\n\nText\nID                                       : 3\nFormat                                   : UTF-8\nCodec ID                                 : S_TEXT/UTF8\nCodec ID/Info                            : UTF-8 Plain Text\nTitle                                    : CC\nLanguage                                 : English\nDefault                                  : No\nForced                                   : No","torrent":{"xt":"urn:btih:6ce16b6ca4bd5a32b03725753b78ea32f8a5a0f9","amp;dn":"StarTalk.S01E06.Jimmy.Carter.1080p.WEB-DL.DD5.1.H.264-orangebird","amp;tr":["udp%3A%2F%2Ftracker.openbittorrent.com%3A80","udp%3A%2F%2Fopen.demonii.com%3A1337","udp%3A%2F%2Ftracker.coppersurfer.tk%3A6969","udp%3A%2F%2Fexodus.desync.com%3A6969"],"infoHash":"6ce16b6ca4bd5a32b03725753b78ea32f8a5a0f9","infoHashBuffer":{"type":"Buffer","data":[108,225,107,108,164,189,90,50,176,55,37,117,59,120,234,50,248,165,160,249]},"announce":[],"urlList":[]}}